HIERARCHY
ROOT Hips
{
	OFFSET 0.000000 0.000000 0.000000
	CHANNELS 6 Xposition Yposition Zposition Zrotation Yrotation Xrotation 
	JOINT LHipJoint
	{
		OFFSET 0.000000 0.000000 0.000000
		CHANNELS 3 Zrotation Yrotation Xrotation
		JOINT LeftUpLeg
		{
			OFFSET 1.363060 -1.794630 0.839290
			CHANNELS 3 Zrotation Yrotation Xrotation
			JOINT LeftLeg
			{
				OFFSET 2.448110 -6.726130 0.000000
				CHANNELS 3 Zrotation Yrotation Xrotation
				JOINT LeftFoot
				{
					OFFSET 2.562200 -7.039590 0.000000
					CHANNELS 3 Zrotation Yrotation Xrotation
					JOINT LeftToeBase
					{
						OFFSET 0.157640 -0.433110 2.322550
						CHANNELS 3 Zrotation Yrotation Xrotation
						End Site
						{
							OFFSET 0.000000 0.000000 0.000000
						}
					}
				}
			}
		}
	}
	JOINT RHipJoint
	{
		OFFSET 0.000000 0.000000 0.000000
		CHANNELS 3 Zrotation Yrotation Xrotation
		JOINT RightUpLeg
		{
			OFFSET -1.305520 -1.794630 0.839290
			CHANNELS 3 Zrotation Yrotation Xrotation
			JOINT RightLeg
			{
				OFFSET -2.542530 -6.985550 0.000000
				CHANNELS 3 Zrotation Yrotation Xrotation
				JOINT RightFoot
				{
					OFFSET -2.568260 -7.056230 0.000000
					CHANNELS 3 Zrotation Yrotation Xrotation
					JOINT RightToeBase
					{
						OFFSET -0.164730 -0.452590 2.363150
						CHANNELS 3 Zrotation Yrotation Xrotation
						End Site
						{
							OFFSET 0.000000 0.000000 0.000000
						}
					}
				}
			}
		}
	}
	JOINT LowerBack
	{
		OFFSET 0.000000 0.000000 0.000000
		CHANNELS 3 Zrotation Yrotation Xrotation
		JOINT Spine
		{
			OFFSET 0.028270 2.035590 -0.193380
			CHANNELS 3 Zrotation Yrotation Xrotation
			JOINT Spine1
			{
				OFFSET 0.056720 2.048850 -0.042750
				CHANNELS 3 Zrotation Yrotation Xrotation
				JOINT Neck
				{
					OFFSET 0.000000 0.000000 0.000000
					CHANNELS 3 Zrotation Yrotation Xrotation
					JOINT Neck1
					{
						OFFSET -0.054170 1.746240 0.172020
						CHANNELS 3 Zrotation Yrotation Xrotation
						JOINT Head
						{
							OFFSET 0.104070 1.761360 -0.123970
							CHANNELS 3 Zrotation Yrotation Xrotation
							End Site
							{
								OFFSET 0.000000 0.000000 0.000000
							}
						}
					}
				}
				JOINT LeftShoulder
				{
					OFFSET 0.000000 0.000000 0.000000
					CHANNELS 3 Zrotation Yrotation Xrotation
					JOINT LeftArm
					{
						OFFSET 3.362410 1.200890 -0.311210
						CHANNELS 3 Zrotation Yrotation Xrotation
						JOINT LeftForeArm
						{
							OFFSET 4.983000 -0.000000 -0.000000
							CHANNELS 3 Zrotation Yrotation Xrotation
							JOINT LeftHand
							{
								OFFSET 3.483560 -0.000000 -0.000000
								CHANNELS 3 Zrotation Yrotation Xrotation
								JOINT LeftFingerBase
								{
									OFFSET 0.000000 0.000000 0.000000
									CHANNELS 3 Zrotation Yrotation Xrotation
									JOINT LeftHandIndex1
									{
										OFFSET 0.715260 -0.000000 -0.000000
										CHANNELS 3 Zrotation Yrotation Xrotation
										End Site
										{
											OFFSET 0.000000 0.000000 0.000000
										}
									}
								}
								JOINT LThumb
								{
									OFFSET 0.000000 0.000000 0.000000
									CHANNELS 3 Zrotation Yrotation Xrotation
									End Site
									{
										OFFSET 0.000000 0.000000 0.000000
									}
								}
							}
						}
					}
				}
				JOINT RightShoulder
				{
					OFFSET 0.000000 0.000000 0.000000
					CHANNELS 3 Zrotation Yrotation Xrotation
					JOINT RightArm
					{
						OFFSET -3.136600 1.374050 -0.404650
						CHANNELS 3 Zrotation Yrotation Xrotation
						JOINT RightForeArm
						{
							OFFSET -5.241900 -0.000000 -0.000000
							CHANNELS 3 Zrotation Yrotation Xrotation
							JOINT RightHand
							{
								OFFSET -3.444170 -0.000000 -0.000000
								CHANNELS 3 Zrotation Yrotation Xrotation
								JOINT RightFingerBase
								{
									OFFSET 0.000000 0.000000 0.000000
									CHANNELS 3 Zrotation Yrotation Xrotation
									JOINT RightHandIndex1
									{
										OFFSET -0.622530 -0.000000 -0.000000
										CHANNELS 3 Zrotation Yrotation Xrotation
										End Site
										{
											OFFSET 0.000000 0.000000 0.000000
										}
									}
								}
								JOINT RThumb
								{
									OFFSET 0.000000 0.000000 0.000000
									CHANNELS 3 Zrotation Yrotation Xrotation
									End Site
									{
										OFFSET 0.000000 0.000000 0.000000
									}
								}
							}
						}
					}
				}
			}
		}
	}
}
MOTION
Frames: 4
Frame Time: 0.008333
-9.229498 17.933502 10.624771 -12.865123 62.896508 -9.203019 -2.842908 0.048501 0.540157 -13.525304 -1.461986 -27.849398 -1.342903 5.199345 14.153830 -1.446986 8.911719 -0.372867 0.053900 1.498800 4.122400 1.049126 -1.158064 1.705261 23.108538 -5.037501 7.123345 -0.498237 -5.249601 16.942648 0.216854 -2.082618 -0.981888 -0.488900 4.483300 -12.440500 6.513501 2.947735 8.750266 1.843054 4.683275 1.371115 -2.885798 2.425808 -3.692860 -10.474625 -2.662658 -14.691318 3.659885 -1.199810 26.468711 3.823500 -1.501600 16.208900 -5.670033 -1.159963 -1.682326 -83.336183 2.098873 25.373928 25.214209 -33.699487 -9.426772 -0.985267 -2.364821 -0.061020 23.723872 22.622250 11.019600 -7.125000 0.000000 0.000000 -5.378000 57.078000 -1.594600 5.154244 1.350965 -0.963970 78.919737 2.269323 12.135872 -13.469323 20.211058 -2.533704 0.304913 -0.179765 11.439678 -13.445747 6.659183 -1.655800 7.125000 0.000000 0.000000 9.524000 -23.034900 5.106500 
-9.133234 17.929395 10.661934 -13.250134 63.000155 -9.364267 -2.915508 0.089695 0.501624 -12.459411 -3.279433 -27.043667 -1.508516 4.718150 12.791991 -1.888362 11.010470 -1.357949 0.013200 0.741600 2.038100 1.044461 -1.177254 1.721038 23.223353 -5.088825 7.464920 -0.458351 -5.123017 16.578486 0.231587 -2.133653 -0.667029 -0.513200 4.591700 -12.747400 6.647974 3.000664 8.578992 1.905923 4.754067 1.332197 -2.867008 2.458916 -3.668901 -10.458202 -2.568997 -14.786547 3.652616 -1.057260 26.321341 3.832700 -1.441100 16.139400 -5.710577 -1.141366 -1.690709 -83.363753 2.541736 24.075624 24.377900 -32.862631 -8.851127 -1.008525 -2.359878 0.613102 23.273792 22.592191 10.785300 -7.125000 0.000000 0.000000 -5.862000 56.951400 -1.720800 5.170338 1.330317 -0.969780 78.601685 2.542287 12.369652 -13.625400 20.438736 -2.593491 0.307927 -0.176965 10.843695 -13.487237 6.756603 -1.684900 7.125000 0.000000 0.000000 9.487900 -22.934700 5.108800 
-9.036670 17.921081 10.696994 -13.536736 63.175382 -9.473139 -2.992881 0.142925 0.462675 -11.363865 -5.361941 -26.142106 -1.648464 4.288725 11.602188 -2.361028 13.160964 -2.594349 0.010300 0.654400 1.798400 1.038499 -1.199497 1.738457 23.261895 -5.212367 7.719655 -0.436515 -5.045964 16.359759 0.225759 -2.088989 -0.462825 -0.567400 4.824200 -13.407700 6.763968 2.992023 8.509422 1.936674 4.750626 1.278796 -2.908089 2.454106 -3.720705 -10.326954 -2.446746 -14.895404 3.554437 -0.901117 26.158702 3.777700 -1.370800 16.062700 -5.755112 -1.132562 -1.698423 -83.367135 2.967798 22.735163 23.512828 -31.967471 -8.261233 -1.063484 -2.373156 1.286943 23.237434 22.901955 10.910300 -7.125000 0.000000 0.000000 -6.006400 57.293700 -1.813100 5.186078 1.306371 -0.978507 78.343888 2.847690 12.838856 -13.766133 20.633696 -2.645513 0.323570 -0.175211 10.020183 -13.849643 6.830516 -1.751100 7.125000 0.000000 0.000000 9.210100 -22.847200 4.974000 
-8.938804 17.909161 10.727145 -13.864133 63.368501 -9.524822 -3.056315 0.190441 0.402538 -10.255648 -7.562687 -25.404088 -1.758142 3.943446 10.645824 -2.898121 15.533081 -3.920910 0.005200 0.467300 1.284100 1.032644 -1.219574 1.762337 23.284297 -5.420713 7.775623 -0.423228 -4.988265 16.203418 0.205812 -1.967249 -0.202659 -0.612600 5.009300 -13.935200 6.935344 2.999435 8.394335 1.965574 4.771607 1.197557 -2.982484 2.457835 -3.784087 -10.332866 -2.380409 -15.069030 3.605749 -0.790563 26.078885 3.819300 -1.321400 16.063900 -5.803585 -1.110918 -1.709486 -83.385540 3.400655 21.496668 22.655438 -31.050417 -7.692737 -1.099644 -2.383804 2.041678 22.888258 23.162071 10.847900 -7.125000 0.000000 0.000000 -6.500000 57.509900 -1.996800 5.195731 1.293158 -0.987201 78.101791 3.129031 13.184715 -13.951984 20.893215 -2.715237 0.341476 -0.170630 9.301972 -14.285202 6.812408 -1.803500 7.125000 0.000000 0.000000 8.881800 -22.853800 4.791100 
